<?xml version="1.0" encoding="UTF-8" standalone="no"?>
<!-- Created with Inkscape (http://www.inkscape.org/) -->

<svg width="200" height="200" viewBox="0 0 168.16801 169.83504" version="1.1" id="svg1" xml:space="preserve"
  sodipodi:docname="logo.svg" inkscape:version="1.3.2 (091e20ef0f, 2023-11-25, custom)"
  xmlns:inkscape="http://www.inkscape.org/namespaces/inkscape"
  xmlns:sodipodi="http://sodipodi.sourceforge.net/DTD/sodipodi-0.dtd" xmlns="http://www.w3.org/2000/svg"
  xmlns:svg="http://www.w3.org/2000/svg">
  <sodipodi:namedview id="namedview1" pagecolor="#505050" bordercolor="#eeeeee" borderopacity="1"
    inkscape:showpageshadow="0" inkscape:pageopacity="0" inkscape:pagecheckerboard="0" inkscape:deskcolor="#d1d1d1"
    inkscape:document-units="mm" inkscape:zoom="1.252539" inkscape:cx="318.15378" inkscape:cy="320.9481"
    inkscape:window-width="1920" inkscape:window-height="1008" inkscape:window-x="0" inkscape:window-y="0"
    inkscape:window-maximized="1" inkscape:current-layer="layer1" />
  <defs id="defs1" />
  <g inkscape:label="Calque 1" inkscape:groupmode="layer" id="layer1" transform="translate(112.08947,-130.24914)">
    <path style="fill:#5c7cfa;stroke:#845ef7;"
      d="m -86.971886,130.51653 c -11.227918,1.60781 -20.780644,9.66016 -23.575684,20.78878 -2.70244,10.75997 -1.03056,23.36273 -1.03056,34.39583 v 65.35208 c 0,12.08671 -2.48293,27.11346 4.87866,37.57083 8.98302,12.76069 23.136298,11.37709 36.9255,11.37709 H -1.5114725 20.184357 c 4.37643,0 8.90201,0.34759 13.22917,-0.37973 10.80714,-1.81647 19.74288,-10.47596 21.62969,-21.31611 1.90747,-10.95895 0.59531,-23.02333 0.59531,-34.13124 v -63.76459 c 0,-12.90463 2.44825,-28.15614 -5.75734,-39.15833 -9.12935,-12.24081 -23.30003,-10.84792 -36.84058,-10.84792 h -66.939578 -21.695832 c -3.711153,0 -7.701894,-0.41297 -11.377083,0.11331 m 0,4.98952 c 10.432797,-1.28129 21.761058,-0.0757 32.279165,-0.0757 h 64.822918 c 11.97728,0 26.85514,-2.59634 35.21918,8.20208 8.01766,10.35124 5.26206,25.78441 5.26206,38.1 v 61.38333 c 0,10.15409 0.66991,20.56374 -0.0237,30.69167 -0.70559,10.30333 -7.51537,19.11973 -17.96799,20.88065 -3.95297,0.66593 -8.169,0.28601 -12.17083,0.28601 H -0.98230254 -67.921887 c -12.267254,0 -26.755391,2.4505 -34.727583,-9.26041 -3.96782,-5.82862 -3.90158,-12.0201 -3.90158,-18.78542 v -18.52083 -60.58958 c 0,-9.91399 -0.89391,-20.29724 0.0449,-30.1625 1.02729,-10.79487 8.142422,-20.75021 19.53425,-22.14926 m 0.529166,2.94797 c -9.976492,1.42928 -16.756696,10.1568 -17.187506,19.99504 -0.43457,9.9242 -0.0104,19.96315 -0.0104,29.89791 v 59.26667 19.84375 c 0,5.79677 -0.10183,11.43144 3.37895,16.40416 7.702655,11.00421 21.688154,8.20209 33.398134,8.20209 H -0.45314454 20.978105 c 3.59862,0 7.56485,0.46415 11.1125,-0.16272 7.35477,-1.29956 13.32915,-7.1158 15.01898,-14.38937 0.92196,-3.96841 0.59144,-8.12482 0.59144,-12.17083 v -83.87291 -16.93334 c 0,-6.56935 0.0165,-12.72105 -4.09533,-18.25625 -7.94987,-10.70172 -22.32799,-7.9375 -34.0046695,-7.9375 H -54.692721 -75.594803 c -3.540502,0 -7.341463,-0.38904 -10.847917,0.1133 m 17.197916,5.97212 c 1.011877,1.9 1.487103,4.00255 3.185618,5.46908 0.846634,0.73099 3.45268,1.27826 3.826656,2.29999 0.319057,0.87168 -1.187266,1.20564 -1.720607,1.41356 -3.634985,1.41701 -3.134406,5.22923 -5.820833,6.95695 -1.376071,-2.61143 -1.76752,-5.43925 -4.7625,-6.82915 -0.57924,-0.26881 -2.636059,-0.57566 -2.289791,-1.58015 0.437058,-1.26787 4.052252,-2.41631 5.052808,-3.76153 0.959987,-1.29068 1.05575,-3.1765 2.528649,-3.96875 m 40.495741,0.19884 c 1.4201,-0.34046 1.9625,1.9175 0.50324,2.22692 -1.3851,0.29368 -1.92457,-1.88616 -0.50324,-2.22692 m 25.9289705,0.79375 c 1.46236,-0.34925 2.06024996,2.05823 0.50344,2.34737 -1.52582,0.28338 -1.98196,-1.99426 -0.50344,-2.34737 m -51.3434615,0.74639 c 2.48348,-0.0574 2.604185,3.83849 8.15e-4,3.77297 -2.379873,-0.0599 -2.358447,-3.71849 -8.15e-4,-3.77297 m 66.410411,-0.15148 c 0.82169,2.52013 2.02005,3.79953 4.49792,4.7625 v 0.79375 l -3.22787,1.90108 -2.0638,2.86142 c -1.08389,-2.43307 -1.9885195,-4.1033 -4.7624995,-4.7625 l 2.6344,-2.17608 2.9218495,-3.38017 m -98.654259,2.81058 c 1.39508,-0.55647 2.282917,1.47593 0.962586,2.15362 -1.36368,0.69994 -2.395598,-1.58201 -0.962586,-2.15362 m 40.975097,56.98525 h 26.722912 c 2.88721,0 7.91657,0.96766 10.3138505,-0.9046 2.63419,-2.05729 1.87345,-8.48933 1.54647,-11.53081 -0.12182,-1.1331 -0.85979,-4.01978 -2.56458,-3.31627 -1.1235105,0.46363 -1.1391405,2.04808 -1.0485305,3.05168 0.18532,2.05285 1.3711505,8.45838 -1.37314,9.17631 -2.81376,0.7361 -6.61026,0.0841 -9.5199,0.0841 h -20.372915 c -2.381137,0 -4.762649,-0.0123 -7.14375,2e-4 -0.798376,0.004 -2.137018,-0.10683 -2.458623,0.85398 -0.453582,1.35509 1.275415,3.48186 2.053173,4.43748 3.13445,3.85129 8.155663,4.7897 11.782533,7.9863 4.143542,3.65197 6.318592,8.82371 6.834252,14.23871 0.2124,2.2305 -0.94022,6.84976 0.46915,8.67082 1.69817,2.19424 3.2687,-0.7169 3.27973,-2.32082 0.0332,-4.82668 0.29828,-9.69562 -1.4352,-14.2875 -1.45491,-3.85397 -4.84424,-6.23364 -6.5021,-9.78959 l 47.09583,0.26458 c -1.45109,6.05297 -7.8842595,12.2808 -12.69999954,15.83376 -1.72773996,1.2747 -3.66946996,2.83252 -5.82082996,3.21625 -0.43117,-2.32259 0.35306,-5.23453 -0.53161,-7.40813 -0.32653,-0.80228 -1.28105,-2.14841 -2.31838,-1.7445 -1.4669105,0.57119 -0.85418,4.21821 -0.85418,5.44846 0,2.33144 0.42352,5.12989 -0.079999,7.40833 -0.30696,1.38894 -1.38667,2.65833 -1.94743,3.96875 -0.40217,0.93985 -0.50556,3.01136 -1.49522,3.50777 -1.66121,0.83328 -4.95676,0.1964 -6.79608,0.1964 h -16.404182 c -1.639798,0 -5.905429,0.76588 -7.212956,-0.27193 -0.910425,-0.72263 -0.996325,-3.15143 -1.416418,-4.22599 -1.072625,-2.74368 -2.709787,-5.36281 -4.865397,-7.38445 -3.316226,-3.11012 -7.613101,-4.89104 -10.846895,-8.15859 -8.852245,-8.94465 -12.704715,-21.82422 -11.037778,-34.19863 0.5697,-4.22914 2.033802,-8.31583 3.812574,-12.17083 13.750577,-29.8006 57.464292,-31.56173 76.9694515,-7.14375 3.2341805,4.04878 5.5921905,8.75769 6.9449005,13.75833 1.39845,5.16975 1.68234,10.57239 1.0226,15.875 -0.2945,2.36702 -0.77758,8.34201 -2.94552,9.78224 -0.83549,0.55504 -2.37348,0.27193 -3.32873,0.27193 H 2.7218575 -27.176053 c -4.82589,0 -15.596942,2.06179 -18.256252,-3.175 m 72.495832,-53.71041 c 0.85939,2.52383 2.20085,4.1531 4.7625,5.02708 l -4.11451,4.49669 -1.13898,1.34496 -2.44719,-3.58412 -2.88265,-2.25753 c 2.68854,-0.91697 4.01398,-2.41954 5.02708,-5.02708 h 0.79375 m -121.70833,3.37384 c 0.842338,-0.0285 0.789778,1.33039 0,1.33415 -0.800714,0.004 -0.821197,-1.30639 0,-1.33415 m 135.20208,-0.19884 c 0.60539,2.90932 -2.57066,0.78073 0,0 m -71.96565,0.71515 c -3.834898,1.30837 -1.66733,7.00374 2.11463,5.71344 3.88308,-1.3248 1.73041,-7.02526 -2.11463,-5.71344 m 9.01033,0.27907 c -1.44322,0.55707 -1.07385,2.54259 -1.07385,3.76828 0,3.64558 -0.74561,8.21533 0.64921,11.64166 2.38469,5.85788 8.24209,6.26225 12.57996,9.87574 6.4046705,5.33516 6.8791705,11.51535 6.8791705,19.22843 0,1.82835 -0.34496,6.19268 2.89489996,4.97726 2.08716004,-0.78298 1.07385,-7.31479 1.07385,-9.21059 0,-7.54795 -2.68739996,-14.40603 -8.99583996,-19.00795 -3.5014005,-2.55423 -8.2023305,-3.03179 -10.4126605,-7.1858 -1.88399,-3.5407 -0.73227,-8.32626 -0.97605,-12.16982 -0.0853,-1.34539 -1.17927,-2.47281 -2.61869,-1.91721 m -26.209261,5.09119 v 0.52917 l 8.202083,0.26458 2.863051,-0.42423 0.311948,-4.60285 c -3.787696,0.33073 -8.168658,2.26969 -11.377082,4.23333 m 33.157031,-3.16376 c -2.92551,1.85411 3.76965,3.9986 4.67838,4.42871 8.4997705,4.02308 16.4613905,12.11068 19.2602805,21.22464 0.74021,2.41032 0.236,5.66393 1.27208,7.8638 0.4350395,0.92371 1.9152895,1.02229 2.7117795,0.5553 1.07361,-0.62947 0.85915,-2.08499 0.72066,-3.12744 -0.35676,-2.68557 -0.79727,-5.4008 -1.7939,-7.9375 -3.5216695,-8.96366 -9.8166195,-14.56983 -17.6729795,-19.67002 -1.65365,-1.07351 -7.1595905,-4.61562 -9.1763005,-3.33749 m -63.556348,3.8681 c 1.443164,-0.47032 2.084848,1.83501 0.727806,2.2955 -1.47037,0.49893 -2.227542,-1.80674 -0.727806,-2.2955 m 94.689188,0.0306 c 1.79642,0.13116 1.50776,3.02492 -0.25683,2.8459 -1.76061,-0.17862 -1.54572,-2.97752 0.25683,-2.8459 m -103.18362,17.52129 c -0.990472,-4.27929 -3.253318,-5.90756 -7.14375,-7.40833 0.458901,-1.45736 1.980152,-1.52198 3.175,-2.24345 1.399414,-0.845 2.514735,-2.09481 3.201133,-3.57738 0.267579,-0.57796 0.597424,-2.29431 1.516453,-2.13749 1.013252,0.17291 1.984175,3.67568 2.746277,4.49404 0.696544,0.74796 4.628961,2.18304 4.463211,3.15479 -0.176479,1.03464 -4.015519,2.19814 -4.845796,3.24379 -1.084361,1.36565 -1.237861,4.15152 -3.112528,4.47403 m 71.6341,-14.80809 c -2.03435,1.59787 1.38907,5.51527 2.71483,6.25874 7.3044505,4.09626 13.12404046,8.23136 16.1242705,16.48685 0.77029,2.11954 1.3261,4.35213 1.33701,6.61459 0.006,1.23939 -0.41186,3.39263 0.42443,4.41768 1.12652,1.38078 6.6683595,1.20569 7.9817995,0.18517 1.10216,-0.85637 0.731,-2.28526 -0.48016,-2.77894 -2.06121,-0.84016 -5.1576595,1.17166 -6.3359195,-1.57076 -1.04901,-2.44158 -0.15115,-6.05818 -0.65329,-8.71982 -1.17926,-6.25082 -5.86529004,-12.06271 -10.99082,-15.60368 -2.30296,-1.591 -4.8122605,-2.80318 -7.1437505,-4.33398 -0.72139,-0.47364 -2.06578,-1.67265 -2.9784,-0.95585 m -42.265351,3.69559 c 2.487836,0.73537 5.613837,0.26459 8.202083,0.26459 h 16.139578 c 1.55426,0 7.94668,0.85364 6.67869,-2.35247 -0.77994,-1.97209 -6.0131,-1.08712 -7.73702,-1.08712 h -13.758331 c -3.940211,0 -6.996848,-0.41162 -9.525,3.175 m 98.160411,-1.5875 c -2.52735,-0.19706 -0.19703,-2.52733 0,0 m -101.069806,5.22348 c -1.488774,0.57681 -2.361024,2.51919 -0.518553,3.27136 1.612914,0.65846 7.442593,0.70134 8.968683,-0.11228 1.419365,-0.75673 1.28097,-2.69225 -0.260704,-3.16398 -1.893545,-0.57941 -6.336556,-0.71297 -8.189426,0.005 m 18.519811,-0.0831 c -3.954716,0.56782 -7.078629,3.12667 -7.384449,7.29502 -0.143596,1.95722 -0.872863,7.02321 2.356143,6.54926 1.864578,-0.27369 1.588723,-2.21947 1.588723,-3.63884 0,-2.46288 0.297624,-4.65155 2.646035,-6.02499 2.659237,-1.55521 8.567483,-0.81659 11.641463,-0.85316 1.14274,-0.0136 2.90817,0.33214 3.92956,-0.27295 1.7836,-1.05663 0.18861,-2.97398 -1.28373,-3.13886 -4.13457,-0.46302 -9.37842,-0.50636 -13.493745,0.0845 m 62.735035,0.0619 c 1.51774,-0.48795 2.27741,1.79815 0.73719,2.29551 -1.4838,0.47915 -2.24555,-1.81059 -0.73719,-2.29551 m 17.43371,5.1165 -2.59684,2.02378 -1.90107,3.53247 -2.2208,-2.8855 -3.33545,-1.877 2.62093,-2.21997 2.14157,-3.33628 5.29166,4.7625 m -61.71712,0.0229 c -0.87913,0.59903 -0.45996,3.03171 -0.45996,3.94589 0,3.14223 -0.0405,6.08818 -3.43958,7.47059 -2.81825,1.14618 -6.79008,0.46691 -9.789585,0.46691 h -20.902083 c -2.085632,0 -9.181113,-1.12261 -10.023951,1.35047 -0.387638,1.13742 0.517369,1.94007 1.561367,2.06032 2.749795,0.31674 5.694217,0.0288 8.462584,0.0288 h 23.547918 c 3.50204,0 7.71608,0.67899 10.84791,-1.21961 3.36334,-2.03895 4.29153,-6.48127 3.58025,-10.15747 -0.18276,-0.94461 -1.99326,-4.8941 -3.38487,-3.94588 m -36.972458,1.41622 c -2.380446,0.37562 -4.325773,1.61929 -5.344542,3.85258 -0.456323,1.00032 -0.796491,2.48483 0.356657,3.16765 3.96537,2.34806 3.492224,-3.78091 6.687668,-3.43611 2.642911,0.28518 1.64728,4.06317 4.384612,3.64353 2.715617,-0.41632 1.880502,-3.98805 0.653703,-5.46683 -1.578614,-1.90285 -4.451194,-2.12169 -6.738098,-1.76082 m 33.337498,3.85258 c -1.15098,0 -2.95154,0.30916 -3.6566,-0.85418 -0.5735,-0.94627 0.17723,-2.42175 -1.12529,-2.90756 -2.854392,-1.06461 -2.966941,3.44248 -2.5117,5.08364 1.05234,3.79377 7.1006,2.20338 7.29359,-1.3219 m -13.697903,-3.43202 c -1.85197,1.12091 -1.345412,8.76462 1.972126,6.55966 1.500224,-0.9971 1.168606,-8.46061 -1.972126,-6.55966 m -37.616969,1.99846 c 1.514644,-0.19989 2.051635,2.22177 0.500583,2.50579 -1.551201,0.28404 -2.119828,-2.2921 -0.500583,-2.50579 m 61.898202,0.63982 v 14.55208 c 6.6e-4,1.45306 0.75215,4.26076 2.79568,2.48619 0.87308,-0.75817 0.64384,-2.25161 0.64391,-3.27994 2.2e-4,-3.54144 -1.36256,-8.37565 2.91041,-9.26041 -0.6544,-2.14102 -4.31338,-3.89885 -6.35,-4.49792 m 53.4734,3.84769 c 1.65508,-0.30798 2.01766,2.20322 0.48731,2.56805 -1.55152,0.36988 -2.0666,-2.27417 -0.48731,-2.56805 m -120.385211,0.7766 c 1.901658,-0.45804 2.628045,2.30616 0.754551,2.87347 -1.771398,0.53638 -2.51316,-2.44989 -0.754551,-2.87347 m 109.056911,1.3715 c 0.89793,-0.37961 1.31633,0.93751 0.4171,1.2139 -0.76948,0.23651 -1.14589,-0.9058 -0.4171,-1.2139 m -118.053154,2.40513 c 1.072,-0.0311 1.395541,1.67128 0.222936,1.77329 -1.116367,0.0971 -1.334193,-1.74106 -0.222936,-1.77329 m 124.601804,2.11667 c 1.65849,-0.0413 1.65912,2.4698 -0.003,2.44536 -1.52008,-0.0223 -1.48368,-2.40834 0.003,-2.44536 m -52.13333,1.38866 c -1.77852,0.41773 -3.17279,1.72086 -5.02708,2.03051 -3.48622,0.58216 -7.31841,0.0862 -10.847919,0.0862 h -21.695832 c -2.837904,0 -5.919899,-0.34121 -8.731048,0.05 -1.208219,0.16815 -2.543013,1.21251 -1.800839,2.55683 0.566895,1.02683 2.096541,1.06822 3.123554,1.09345 2.906775,0.0714 5.823546,0.004 8.73125,0.004 h 28.045834 c 4.23867,-0.002 8.20155,-0.97342 8.20208,-5.82083 m -63.471211,2.54212 c 2.181361,-0.8594 3.678411,2.6734 1.529929,3.57678 -2.209339,0.92896 -3.68972,-2.72587 -1.529929,-3.57678 m -10.601503,2.13096 c 1.849126,-0.18285 2.159705,2.65475 0.253968,2.79405 -1.744254,0.1275 -1.972746,-2.62409 -0.253968,-2.79405 m 119.595544,0.0198 c 1.55639,-0.41224 2.29836,1.99841 0.74495,2.49027 -1.57388,0.49835 -2.38035,-2.0571 -0.74495,-2.49027 m 11.92053,-0.0341 c 1.89502,-0.74828 3.18806,2.09404 1.26536,2.85325 -1.89501,0.74827 -3.18808,-2.09404 -1.26536,-2.85325 m -79.403775,37.67452 c 2.775194,-0.87659 0.902981,-6.6522 -0.02899,-8.46666 -2.309799,-4.497 -6.312139,-5.75729 -10.289763,-8.31825 -2.588238,-1.66641 -4.768507,-3.95014 -6.477188,-6.49842 -1.320196,-1.96891 -2.436713,-4.30046 -2.985339,-6.61459 -0.26156,-1.10326 -0.221406,-2.93437 -1.423565,-3.46775 -4.013111,-1.78056 -2.583204,4.37432 -2.027044,6.11359 1.674195,5.23567 5.252299,10.54023 9.738136,13.74772 5.806558,4.15183 10.582805,6.51253 13.49375,13.50436 m -15.814567,-33.40569 c -1.078156,0.5038 -0.773899,1.79339 -0.555094,2.71402 0.591259,2.48775 1.733873,4.86605 3.317498,6.87917 3.209804,4.08033 7.815555,5.25514 11.729249,8.33908 4.665405,3.67627 6.085417,8.75312 6.085417,14.41509 0,1.4792 -0.299974,5.25873 2.376147,4.33337 1.427338,-0.49355 1.327458,-2.04619 1.328018,-3.27504 10e-4,-2.92123 0.21596,-5.87571 -0.50141,-8.73125 -0.974694,-3.87986 -3.364761,-7.62546 -6.642338,-9.938 -3.629345,-2.56075 -7.811959,-3.70773 -10.725016,-7.25992 -1.654796,-2.01785 -3.044371,-9.05035 -6.412471,-7.47652 m 63.4550755,0 c -1.35949,0.56911 -1.16488,2.268 0.0133,2.93124 1.14079,0.64221 4.30353,0.61742 5.5025495,0.11556 1.29967,-0.54399 1.72638,-2.41613 0.26071,-3.0468 -1.2398095,-0.53348 -4.5330995,-0.52052 -5.7765395,0 m -103.7034045,4.72576 c 1.614598,-0.67147 4.321805,-0.15965 6.056631,-0.15965 h 13.493749 c 0.816112,0 5.865719,0.44475 3.507566,2.3739 -1.034283,0.84612 -3.810854,0.19464 -5.095066,0.31685 -3.945858,0.3755 -7.939692,0.21966 -11.906249,0.21966 -1.791586,0 -4.084305,0.37655 -5.809197,-0.15147 -1.286828,-0.39392 -1.624356,-2.02667 -0.247434,-2.59929 m 119.061474,-0.0449 c 1.76879,-0.53773 4.21639,-0.11474 6.05765,-0.11474 h 13.22917 c 0.8635,0 5.60594,0.67467 3.09069,2.3739 -1.46986,0.99299 -4.11264,0.35346 -5.73652,0.28235 -3.92128,-0.17173 -7.97001,-0.0104 -11.90625,-0.0104 -1.4186,0 -3.68976,0.51889 -4.9981,0.0178 -1.33427,-0.51106 -0.95502,-2.17846 0.26336,-2.54886 m -118.557009,5.53256 c 2.300721,-0.48705 5.056001,-0.0911 7.404249,-0.0911 4.007873,0 8.181308,-0.33474 12.170833,0.0449 0.838507,0.0798 7.599047,0.15723 5.165499,2.40452 -1.16261,1.07363 -4.477504,0.46098 -5.959249,0.46098 h -13.49375 c -1.78952,0 -4.404715,0.45437 -6.046014,-0.40055 -1.408266,-0.73354 -0.397844,-2.17405 0.758432,-2.41882 m 116.681249,0.0237 c 1.96041,-0.55365 4.57982,-0.11474 6.6105,-0.11474 h 13.49375 c 0.97531,0 6.98641,0.11688 4.3454,2.44944 -1.20498,1.06425 -4.42056,0.46098 -5.9329,0.46098 h -13.22917 c -1.72364,0 -4.19152,0.4427 -5.80511,-0.23642 -1.50063,-0.63157 -0.74921,-2.20152 0.51753,-2.55926 m -46.57075,2.53109 c 0.62717,1.31992 1.64199,3.19891 3.17602,3.58556 2.11285,0.53254 3.83511,-0.63846 5.79511,1.01648 3.00684,2.53885 1.87678,8.02199 1.87678,11.53755 0,1.36076 -0.34314,3.63078 0.87398,4.60183 2.50625,1.99954 2.83019,-2.50638 2.83019,-3.80808 0,-3.57154 0.78575,-8.23572 -0.36074,-11.64167 -1.80927,-5.37488 -9.30608,-6.73568 -14.19134,-5.29167 m 14.55208,-0.26458 c 0.78402,1.1466 1.81759,2.77695 3.1752,3.27994 1.2287505,0.45523 2.5048405,-0.0258 3.7037705,0.69126 2.1412,1.28063 3.23114,3.95785 3.43978,6.34755 4.54479,-1.7231 2.99965996,-6.9679 -0.53018,-9.26858 -2.70623,-1.76387 -6.7056805,-1.05017 -9.7885705,-1.05017 m 14.8166705,0.26458 1.32291,4.23334 c 1.72122,-0.80318 3.26357,-2.63955 3.70417,-4.49792 l -5.02708,0.26458 m -99.9835105,3.07008 c 1.865922,-0.77915 5.103233,-0.15965 7.11476,-0.15965 h 16.139583 c 1.361339,0 3.295955,-0.34339 4.482401,0.46098 0.53188,0.36059 1.343095,1.31937 0.64451,1.91292 -1.196103,1.01628 -5.443009,0.27193 -6.978994,0.27193 h -14.2875 c -2.105847,0 -4.830869,0.46155 -6.86753,-0.0841 -1.234505,-0.33074 -1.513241,-1.87343 -0.24723,-2.40207 m 114.53579,-0.0725 c 6.77872,-1.23043 14.79857,-0.0872 21.69563,-0.0872 1.41752,0 3.42027,-0.35834 4.75719,0.15965 0.82918,0.32126 1.48319,1.29849 0.67922,2.02521 -1.25299,1.13259 -4.90148,0.46097 -6.49474,0.46097 h -16.13958 c -1.5017,0 -4.72975,0.60786 -5.99723,-0.27193 -1.39373,-0.96743 0.62957,-2.12882 1.49951,-2.28673 m -38.80984,4.41932 c -0.99689,0.64168 -0.61328,2.69162 -0.61328,3.69559 0,3.60662 -0.5135,7.55544 -0.2017,11.1123 0.0953,1.08683 1.16805,2.13651 2.27918,1.53523 1.18581,-0.64169 0.83294,-2.53932 0.83294,-3.65169 0,-3.63556 0.37763,-7.50064 -0.0288,-11.1123 -0.1196,-1.06285 -1.07281,-2.34867 -2.26836,-1.57913 m -75.959094,0.94482 c 1.907891,-0.86221 5.527083,-0.15964 7.612487,-0.15964 h 18.520833 c 1.538702,0 3.825655,-0.42268 5.266761,0.15964 0.602168,0.24333 1.619115,1.3119 0.909097,1.94968 -1.22679,1.10196 -6.137726,0.27193 -7.763358,0.27193 h -16.668729 c -2.33026,0 -5.409358,0.53437 -7.657401,-0.0841 -1.057282,-0.29089 -1.284263,-1.65639 -0.21967,-2.1375 m 110.801214,0 c 2.09383,-0.787 5.44371,-0.15964 7.67169,-0.15964 h 17.19791 c 1.76976,0 3.80508,-0.27833 5.54462,0.0604 0.95516,0.186 1.53541,1.13227 0.68656,1.8968 -1.35431,1.21977 -5.80186,0.42402 -7.55409,0.42402 h -17.4625 c -1.83658,0 -5.41795,0.69487 -7.05454,-0.15965 -1.0948195,-0.57165 0.33784,-1.82422 0.97035,-2.06196 m -72.497061,7.77786 h -30.162499 c -2.361217,0 -5.082682,0.37635 -7.404249,-0.0604 -0.882453,-0.16603 -1.838213,-1.00248 -1.268001,-1.97233 0.447418,-0.761 1.578254,-0.61154 2.32225,-0.61308 h 6.614583 22.489583 c 2.683327,0 6.596625,-0.73963 7.408333,2.64584 m 65.3520815,0 c 0.82367,-3.46212 4.64759,-2.64584 7.4083295,-2.64584 h 22.225 6.35 c 0.75357,0.002 1.90484,-0.14578 2.36878,0.61328 0.60438,0.98881 -0.41407,1.85108 -1.31167,1.99336 -2.27323,0.36035 -4.84089,0.0392 -7.14252,0.0392 H 4.8385275 M -98.080302,236.087 c 3.370879,-0.47533 7.401722,0.14985 10.843832,0.14985 h 24.341666 c 2.839333,0 5.916063,-0.33808 8.730228,0.0353 0.731238,0.097 2.452451,0.93993 1.65814,1.92272 -0.572034,0.70778 -2.185913,0.42322 -2.980035,0.42322 h -8.202083 -24.606249 c -2.875967,0 -7.638271,0.92261 -10.30303,-0.15965 -1.473617,-0.5985 -0.814666,-2.18361 0.517531,-2.37145 m 94.9815295,0.26458 c 3.32930996,-0.91705 7.92239,-0.11473 11.37688,-0.11473 H 32.619777 c 2.98948,0 6.00919,-0.12503 8.99562,0.005 0.92535,0.0403 2.51937,0.81655 1.42684,1.91517 -0.73499,0.73908 -2.33851,0.46098 -3.27871,0.46098 H 31.561447 5.8968575 c -2.59321,0 -7.937,1.03632 -10.22953,-0.15965 -1.22215,-0.63758 0.57793,-1.92618 1.2339,-2.10687 m -95.4992645,6.92408 c 2.927094,-1.1841 8.200645,-0.15965 11.361567,-0.15965 h 26.722916 c 2.924147,0 6.096737,-0.35109 8.99461,0.0353 1.022523,0.13635 2.273177,1.19061 1.198788,2.18649 -0.768429,0.71228 -2.355856,0.42403 -3.314232,0.42403 h -8.466666 -29.104166 c -2.268177,0 -4.904414,0.37264 -7.132113,-0.0604 -1.362953,-0.26497 -1.609631,-1.88007 -0.260704,-2.42576 m 92.0882645,0 c 2.94704,-1.22612 8.41565,-0.15965 11.61288,-0.15965 H 32.355197 c 3.06011,0 6.20926,-0.21642 9.2602,0.0145 1.05212,0.0796 2.56516,1.06637 1.42785,2.20731 -0.72137,0.72367 -2.35444,0.42403 -3.27972,0.42403 H 31.032277 1.1343575 c -2.27379,0 -5.20206,0.49371 -7.40323,-0.0841 -1.26799,-0.33285 -1.53605,-1.86322 -0.2409,-2.40207 m -9.5537805,9.89452 c 2.73734,0.1503 3.30529,3.33958 0.26438,3.4355 -2.81625,0.0888 -5.64873,0.004 -8.46647,0.004 h -5.82083 c -1.80553,0 -4.64174,-0.53784 -6.321213,0.15965 -1.203447,0.49979 -1.232346,2.09789 -0.01328,2.59112 1.507608,0.60998 3.929558,0.15965 5.540738,0.15965 h 12.96458 c 1.26645,0 5.09163,-0.29589 4.25539,2.10115 -0.65099,1.86602 -5.08143,1.07385 -6.63664,1.07385 h -15.345824 c -1.982122,0 -5.012597,0.57021 -6.867531,-0.15965 -2.818905,-1.10915 -0.156749,-2.99967 1.575865,-3.01535 v -2.91042 c -0.442148,-0.0206 -0.889949,-0.0162 -1.317814,-0.15148 -3.786877,-1.19711 1.92112,-3.72373 1.497067,-5.38925 -0.237583,-0.93313 -5.292927,-2.27662 -3.19358,-3.97692 1.179103,-0.95496 4.975068,-0.27193 6.45391,-0.27193 h 17.462502 c 1.52778,0 5.87075,-0.74293 6.98001,0.42423 1.692,1.78031 -2.18884,2.58897 -2.73933,3.39446 -0.45415,0.66451 -0.27185,1.76853 -0.27193,2.53131 m -33.866668,-2.38106 c -4.249066,0.78886 -8.694798,0.0518 -12.964583,0.001 -8.375805,-0.0996 -16.758945,-0.001 -25.135416,-0.001 -3.066711,0 -6.207035,0.53157 -9.260416,0.21946 -0.922665,-0.0943 -2.933954,-0.62866 -1.908634,-1.95702 0.603709,-0.78214 1.834012,-0.64224 2.702384,-0.64369 h 7.14375 29.104165 c 2.843024,0 9.810092,-1.41329 10.31875,2.38125 m 42.5979185,-0.26458 c 1.14958,-3.35095 6.93047996,-2.11667 9.78958,-2.11667 h 29.6333295 8.46667 c 0.91273,0.002 2.38742,-0.14906 2.87427,0.85295 0.67614,1.39157 -1.47785,1.708 -2.3451,1.7692 -3.06513,0.21629 -6.19267,-0.20457 -9.26042,-0.23988 -8.905,-0.1025 -17.81725,-0.001 -26.7229195,-0.001 -3.82719,0 -8.76618,0.81998 -12.43541,-0.26458 m -29.2846405,-0.25724 c -2.566583,1.71269 1.69512,4.00504 3.46143,2.63114 2.43013,-1.89026 -1.72434,-3.79029 -3.46143,-2.63114 m 17.1138,-0.007 c -1.33096,-0.24709 -2.61825,-0.26458 -3.96875,-0.26458 h -2.64583 c -1.15702,4.4e-4 -5.0837,1.01513 -2.75077,2.86305 1.31681,1.04304 5.35066,0.31531 6.9841,0.31195 0.59163,-0.001 1.45733,0.12383 1.95702,-0.27193 0.6664,-0.5278 0.42415,-1.89268 0.42423,-2.63849 m -79.314564,3.86382 c 2.691948,-1.21655 8.091942,-0.15965 11.052071,-0.15965 h 26.987499 c 3.050863,0 6.221676,-0.25087 9.260214,0.0155 0.925037,0.0811 2.317195,0.90411 1.422947,1.96518 -0.72714,0.86279 -2.278337,0.66474 -3.274828,0.66513 h -8.466667 -29.368749 c -2.181607,0 -5.035711,0.48675 -7.138645,-0.11474 -1.082536,-0.30962 -1.765395,-1.78777 -0.473842,-2.37144 m 92.0435545,0 c 2.94163,-1.22834 8.41952,-0.15965 11.61268,-0.15965 H 32.619777 c 3.03006,0 6.2492,-0.3124 9.2594,0.0288 1.04084,0.11798 2.33506,1.15415 1.20511,2.15607 -0.80922,0.71753 -2.3279,0.46098 -3.32076,0.46098 H 31.032277 1.1343575 c -2.34276,0 -5.39694,0.52255 -7.66128,-0.0841 -1.23449,-0.33074 -1.51324,-1.87343 -0.24723,-2.40207 m -42.0977355,5.3966 c -1.145057,3.14178 0.441382,6.42336 3.439583,7.93771 1.265839,0.63935 2.777988,0.69322 3.964665,1.50848 2.447565,1.68152 3.107053,5.19574 5.560335,7.11925 4.445962,3.48592 11.482102,2.76203 15.321132,-1.23002 2.72903,-2.8378 2.76737,-5.7851 6.90387,-7.13334 0.15939,3.71169 0.28085,7.4015 0.26438,11.1125 -0.005,1.22375 -0.65609,3.11268 0.1966,4.14923 0.76163,0.92586 2.44975,0.61327 3.5077705,0.61327 h 7.9375 c 0.95724996,0 2.51885996,0.28634 3.35547,-0.27193 1.09153,-0.72838 0.85354,-3.54318 -0.21967,-4.17862 -1.20548004,-0.71377 -3.37091,-0.31195 -4.7233,-0.31195 h -5.02709 c 0,-4.5634 -0.28241,-9.21103 -0.13269,-13.75833 0.0739,-2.24486 1.1548,-3.25557 0.13269,-5.55625 h 37.3062495 10.05417 c 1.08803,0 2.91092,-0.33716 3.85401,0.31195 0.79758,0.54895 0.6425,1.75921 0.64391,2.59847 v 7.40833 c 0,2.40221 0.0453,4.79872 -0.57042,7.14375 -2.77962,10.58711 -12.46781,11.42118 -21.65458,11.37687 -25.2063095,-0.12155 -50.43544,-0.26437 -75.670835,-0.26437 h -22.754165 c -3.907633,0 -8.412948,0.62816 -12.170833,-0.58653 -9.058722,-2.92813 -10.054167,-11.68633 -10.054167,-19.78639 0,-1.59864 -0.859457,-7.30351 0.832948,-8.04243 1.201343,-0.52452 3.166687,-0.15965 4.458719,-0.15965 h 10.054166 35.189582 m -44.449998,4.23333 c -0.837292,4.57803 0,10.11854 0,14.81667 0,1.07902 -0.511391,3.97411 0.424231,4.71513 0.892085,0.70655 3.00127,0.31195 4.073685,0.31195 h 9.260417 c 1.057241,0 2.941798,0.35592 3.854016,-0.27193 0.908738,-0.62545 1.041994,-3.53378 -0.0065,-4.09941 -1.567783,-0.84575 -4.976893,-0.12658 -6.757901,-0.12658 h -6.085416 v -3.175 c 1.923211,0 6.759545,0.88257 8.31743,-0.27193 0.908199,-0.67303 0.841644,-3.23772 -0.199255,-3.765 -1.935878,-0.98065 -5.958419,-0.1964 -8.118175,-0.1964 v -3.43958 h 13.229166 c 0.134859,-1.06709 0.805054,-3.41573 -0.196395,-4.22599 -0.955699,-0.77322 -3.653947,-0.27193 -4.830688,-0.27193 h -12.964615 m 23.018749,0 v 14.2875 c 0,1.24498 -0.531767,4.11726 0.271935,5.13202 0.912142,1.15167 5.48555,0.42423 6.871815,0.42423 4.361414,0 8.310684,-0.18883 11.196203,-3.96875 4.291913,-5.62225 0.883518,-14.61114 -6.16912,-15.78884 -3.862454,-0.64499 -8.254458,-0.0862 -12.170833,-0.0862 m 76.7291645,0 v 8.20208 5.29167 c 0,2.90485 -1.07573,6.35599 2.64583,6.35 0.63742,-10e-4 1.6177795,0.14594 2.0693095,-0.42423 0.78121,-0.98649 0.079,-2.94149 0.0512,-4.07369 -0.0863,-3.5232 -0.005,-7.05898 -0.004,-10.58333 4.3e-4,-1.10398 0.66252,-3.43298 -0.0476,-4.33827 -0.73635,-0.93878 -3.6286395,-0.42423 -4.7149295,-0.42423 m 26.9874995,9.525 c 3.00187,-2.49805 3.34212,-6.79227 -0.52917,-8.77474 -3.08337,-1.57897 -7.73922,-0.75026 -11.1125,-0.75026 -1.09926,0 -2.87815,-0.3356 -3.88464,0.15965 -0.77783,0.38274 -0.6118,1.50622 -0.61327,2.2216 v 6.61458 7.14375 c 0,0.89675 -0.25229,2.30531 0.27193,3.0909 0.75571,1.13249 3.57574,0.61327 4.75515,0.61327 4.21526,0 10.30567,1.13916 13.4372,-2.39186 2.42026,-2.72903 0.88038,-6.80674 -2.3247,-7.92689 m -98.689581,-5.29167 c 2.579361,0.76243 5.634596,-0.54171 7.933418,1.20594 3.178375,2.41632 2.865729,7.55277 -0.78987,9.34064 -2.15028,1.05167 -5.074383,0.56592 -7.408131,0.56592 0,-3.16369 -0.95532,-8.20531 0.264583,-11.1125 m 87.577081,3.70417 v -3.70417 c 1.68097,0 9.01403,-0.93187 8.55608,2.1128 -0.39495,2.62574 -6.67968,1.59137 -8.55608,1.59137 m -45.77292,-1.5875 c -1.57882,4.93066 -9.2197,4.30045 -11.1125,0 h 11.1125 m 45.77292,8.99583 v -3.70416 c 1.85938,0.0753 8.92001,-0.58572 9.36025,1.59914 0.25282,1.25474 -0.89229,1.95912 -1.95213,2.11216 -2.37811,0.34342 -4.99729,-0.007 -7.40812,-0.007 z"
      id="path2" />
    <path
      style="font-variation-settings:normal;opacity:1;vector-effect:none;fill:##339af0;fill-opacity:1;stroke:#845ef7;stroke-width:3.01749;stroke-linecap:butt;stroke-linejoin:miter;stroke-miterlimit:4;stroke-dasharray:none;stroke-dashoffset:0;stroke-opacity:1;"
      d="m 72.62046,577.59142 c -1.329067,-1.4686 -1.518968,-3.64783 -1.895842,-21.75581 -0.570825,-27.427 -0.508625,-46.04723 0.162307,-48.5878 l 0.559227,-2.11758 31.340708,-0.30727 c 17.23739,-0.169 32.31032,0.004 33.49541,0.3851 3.57392,1.1484 4.34295,5.30393 2.57721,13.92611 l -0.36556,1.785 -24.93696,0.21095 -24.936962,0.21095 v 6.7744 6.7744 l 6.387027,-0.38737 c 3.512865,-0.21306 9.876585,-0.37766 14.141605,-0.36577 6.58155,0.0183 8.09017,0.27216 9.97315,1.678 2.96252,2.21185 3.94103,5.81895 2.70115,9.95731 -1.5611,5.21048 -3.99183,5.83218 -20.26343,5.18273 l -13.406978,-0.53512 0.233738,6.21855 0.233738,6.21855 13.173242,-0.0464 c 7.24528,-0.0255 17.66412,-0.20513 23.15297,-0.39919 7.06381,-0.24974 10.48592,-0.063 11.71215,0.63901 3.71437,2.12656 4.32675,11.31169 0.97747,14.66098 -1.43226,1.43226 -3.15404,1.51231 -32.52534,1.51231 -30.222845,0 -31.050646,-0.0416 -32.49003,-1.63208 z"
      id="path1" transform="matrix(0.26458333,0,0,0.26458333,-112.08947,130.24914)" />
    <path
      style="font-variation-settings:normal;opacity:1;vector-effect:none;fill:#339af0;fill-opacity:1;stroke:none;stroke-width:3.01749;stroke-linecap:butt;stroke-linejoin:miter;stroke-miterlimit:4;stroke-dasharray:none;stroke-dashoffset:0;stroke-opacity:1;-inkscape-stroke:none;stop-color:#000000;stop-opacity:1"
      d="m 72.576575,577.54304 c -1.386054,-1.53147 -1.556294,-3.46039 -1.92009,-21.75581 -0.537618,-27.037 -0.447728,-45.97145 0.23044,-48.53942 l 0.559227,-2.11758 31.340708,-0.30727 c 17.23739,-0.169 32.31032,0.004 33.49541,0.3851 3.57392,1.1484 4.34295,5.30393 2.57721,13.92611 l -0.36556,1.785 -24.93696,0.21095 -24.936962,0.21095 -0.231898,6.58756 -0.231898,6.58756 14.337018,-0.20053 c 13.49023,-0.18869 14.4702,-0.10143 16.59207,1.47747 2.99627,2.22955 3.98243,5.82417 2.73764,9.97891 -1.5611,5.21048 -3.99183,5.83218 -20.26343,5.18273 l -13.406978,-0.53512 0.233738,6.21855 0.233738,6.21855 12.374862,-0.0355 c 6.80618,-0.0195 17.22502,-0.19914 23.15298,-0.39919 7.71271,-0.26029 11.27082,-0.0816 12.51052,0.6281 3.71437,2.12656 4.32675,11.31169 0.97747,14.66098 -1.43226,1.43226 -3.15404,1.51231 -32.52534,1.51231 -30.513966,0 -31.037488,-0.027 -32.533915,-1.68046 z"
      id="path3" transform="matrix(0.26458333,0,0,0.26458333,-112.08947,130.24914)" />
  </g>
</svg>